# xmcd
#
# Track frame offsets:
#	150
#	16880
#	31140
#	44917
#	56655
#	75210
#	90547
#	104065
#	116305
#	131787
#	149225
#	168060
#	188370
#	204397
#	218237
#	232715
#	250352
#	261195
#	280337
#	294162
#
# Disc length: 4098 seconds
#
# Revision: 1
# Processed by: cddbd v1.5PL3 Copyright (c) Steve Scherf et al.
# Submitted via: audiograbber 1.83.01
#
DISCID=18100014
DTITLE=Various Artist - Gold Disc 1002
DYEAR=1900
DGENRE=Country
TTITLE0=David Allen Coe - Mona Lisa Lost Her Smile
TTITLE1=Crystal Gayle - You Never Gave Up On Me
TTITLE2=Mac Davis - Baby Don't Get Hooked On Me
TTITLE3=Conway Twitty - Don't Call Him A Cowboy
TTITLE4=Juice Newton - You Make Me Want To Make You Mine
TTITLE5=Gatlin Brothers - Taking Somebody With Me
TTITLE6=Ronnie Milsap - I'm A Stand By My Woman Man
TTITLE7=Creedence Clearwater Revival - Down On The Corner
TTITLE8=Emmylou Harris - You Never Can Tell
TTITLE9=Ray Charles - Seven Spanish Angels
TTITLE10=Kenny Rogers - Buried Treasure
TTITLE11=Eagles - Best Of My Love
TTITLE12=Gary Morris - The Love She Found In Me
TTITLE13=Oak Ridge Boys - Love Song
TTITLE14=John Schneider - Country Girls
TTITLE15=Anne Murray - Broken Hearted Me
TTITLE16=Eddie Rabbit - Two Dollars In The Jukebox
TTITLE17=Alabama - There's A Fire In The Night
TTITLE18=Sylvia - Cry Just A Little Bit
TTITLE19=Hank Williams Jr. - All My Rowdy Friends
EXTD=
EXTT0=
EXTT1=
EXTT2=
EXTT3=
EXTT4=
EXTT5=
EXTT6=
EXTT7=
EXTT8=
EXTT9=
EXTT10=
EXTT11=
EXTT12=
EXTT13=
EXTT14=
EXTT15=
EXTT16=
EXTT17=
EXTT18=
EXTT19=
PLAYORDER=
